<?xml version="1.0" standalone="no"?>
<!DOCTYPE svg PUBLIC "-//W3C//DTD SVG 1.1//EN" "http://www.w3.org/Graphics/SVG/1.1/DTD/svg11.dtd" >
<svg xmlns="http://www.w3.org/2000/svg" xmlns:xlink="http://www.w3.org/1999/xlink" version="1.1">
<metadata>
Created by FontForge 20170731 at Sun Oct 30 18:34:03 2016
 By ,,,
Cubox-3D ST (c) (Southype). 2016. All Rights Reserved www.southype.com free for personal use
</metadata>
<defs>
<font id="Cubox-3DST" horiz-adv-x="1014" >
  <font-face 
    font-family="Cubox-3D ST"
    font-weight="400"
    font-stretch="normal"
    units-per-em="2048"
    panose-1="2 0 5 0 0 0 0 0 0 0"
    ascent="1638"
    descent="-410"
    x-height="1772"
    cap-height="1952"
    bbox="0 0 2172 2224"
    underline-thickness="150"
    underline-position="-442"
    unicode-range="U+0020-F002"
  />
<missing-glyph horiz-adv-x="1024" 
 />
    <glyph glyph-name=".notdef" horiz-adv-x="1024" 
 />
    <glyph glyph-name=".null" horiz-adv-x="0" 
 />
    <glyph glyph-name="nonmarkingreturn" horiz-adv-x="508" 
 />
    <glyph glyph-name="space" unicode=" " horiz-adv-x="1816" 
 />
    <glyph glyph-name="space" unicode="&#xa0;" horiz-adv-x="1816" 
 />
    <glyph glyph-name="exclam" unicode="!" horiz-adv-x="672" 
 />
    <glyph glyph-name="quotedbl" unicode="&#x22;" horiz-adv-x="672" 
 />
    <glyph glyph-name="numbersign" unicode="#" horiz-adv-x="1336" 
 />
    <glyph glyph-name="dollar" unicode="$" 
 />
    <glyph glyph-name="percent" unicode="%" horiz-adv-x="1610" 
 />
    <glyph glyph-name="ampersand" unicode="&#x26;" horiz-adv-x="1683" 
 />
    <glyph glyph-name="quotesingle" unicode="'" horiz-adv-x="346" 
 />
    <glyph glyph-name="parenleft" unicode="(" horiz-adv-x="758" 
 />
    <glyph glyph-name="parenright" unicode=")" horiz-adv-x="758" 
 />
    <glyph glyph-name="asterisk" unicode="*" horiz-adv-x="1024" 
 />
    <glyph glyph-name="plus" unicode="+" 
 />
    <glyph glyph-name="comma" unicode="," horiz-adv-x="557" 
 />
    <glyph glyph-name="hyphen" unicode="-" horiz-adv-x="1816" 
d="M1516 1856q68 0 68 -88q0 -36 52 -1304q-88 -396 -100 -436q-18 -22 -32 -28l-1100 20q-72 0 -96 60q-13 9 -260 324q-48 53 -48 72v4q0 47 184 1308q26 36 56 36l1268 28zM300 1700q-88 -591 -164 -1148l128 -4q304 0 1244 -12l-48 1192zM608 1236h420v-140h-420v140z
M196 428v-4q180 -228 224 -280q81 0 1008 -20q64 284 64 288q-868 12 -1276 12z" />
    <glyph glyph-name="hyphen" unicode="&#xad;" horiz-adv-x="1816" 
d="M1516 1856q68 0 68 -88q0 -36 52 -1304q-88 -396 -100 -436q-18 -22 -32 -28l-1100 20q-72 0 -96 60q-13 9 -260 324q-48 53 -48 72v4q0 47 184 1308q26 36 56 36l1268 28zM300 1700q-88 -591 -164 -1148l128 -4q304 0 1244 -12l-48 1192zM608 1236h420v-140h-420v140z
M196 428v-4q180 -228 224 -280q81 0 1008 -20q64 284 64 288q-868 12 -1276 12z" />
    <glyph glyph-name="period" unicode="." horiz-adv-x="557" 
 />
    <glyph glyph-name="slash" unicode="/" horiz-adv-x="569" 
 />
    <glyph glyph-name="zero" unicode="0" horiz-adv-x="2152" 
d="M816 1980q8 0 1112 -524q44 -22 44 -68q-284 -1327 -296 -1360q-18 -22 -32 -28h-32q-20 0 -1092 272q-170 38 -220 76q-9 0 -276 128q-24 24 -24 56q4 32 308 1144q16 31 132 92q280 180 348 212h28zM844 1820q-364 -1392 -364 -1404l1092 -276l264 1216l-992 468v-4z
M144 564q205 -100 216 -100q76 313 340 1312h-4q-270 -164 -272 -172q-12 -33 -284 -1040h4zM1192 1348h16q250 -96 256 -120q8 -28 8 -44q-144 -624 -168 -692q-24 -25 -48 -28q-276 75 -276 100q-8 28 -8 44q172 703 184 720q21 20 36 20zM1244 1184l-92 -360v-4h4
q164 326 164 336zM1300 972q0 -6 -160 -324q65 -20 80 -20q36 157 84 340v4h-4z" />
    <glyph glyph-name="one" unicode="1" horiz-adv-x="2352" 
d="M1476 2204h24q38 0 84 -104q72 -120 448 -780q140 -235 140 -256v-16q0 -24 -176 -256q-525 -741 -564 -784q-13 -8 -24 -8h-24q-25 0 -676 272q-19 27 -624 764q-84 95 -84 116v24q0 29 128 136q667 639 680 640q629 244 668 252zM628 1176q578 -754 760 -1004h4
q43 55 640 888q-525 913 -556 976h-4q-705 -713 -844 -860zM228 1236v-4q226 12 284 12l708 720l4 8q-361 -136 -372 -148q-615 -587 -624 -588zM1316 1476q35 0 120 -156q39 -51 264 -404v-4q-55 -75 -76 -92h-4l-316 484h-4q0 -8 -80 -92q-11 7 -76 108q143 156 152 156
h20zM192 1108q561 -689 608 -736l396 -160v4q-684 904 -688 904q-263 -12 -316 -12z" />
    <glyph glyph-name="two" unicode="2" horiz-adv-x="2292" 
d="M396 2092h24q25 0 820 -208q58 -35 848 -468q24 -24 24 -40v-32q0 -9 -100 -224q-380 -827 -396 -856q0 -20 -396 -136q-280 -96 -404 -128h-28q-24 0 -104 92q-624 652 -684 724v20q0 26 156 544q172 576 208 688zM456 1928q-320 -1066 -320 -1076l644 -672
q480 1211 492 1252q-74 42 -800 488q0 8 -16 8zM820 1860v-4q62 -34 560 -340q164 -24 328 -44h4v4l-536 292q-330 84 -352 92h-4zM640 1480q36 -12 204 -128q12 -20 12 -40v-4q0 -38 -108 -292q-15 -12 -28 -12h-12q-14 0 -136 92q-4 0 -4 -4q-16 -48 -76 -204
q28 -20 152 -124h4q-23 -92 -56 -92q-27 0 -164 132q-26 0 -36 60v12q0 22 128 360q17 16 40 16q41 -25 128 -88h8q36 103 36 112q-147 91 -160 108q25 96 68 96zM1396 1384q-445 -1122 -480 -1220q524 168 604 196l436 952z" />
    <glyph glyph-name="three" unicode="3" horiz-adv-x="2296" 
d="M572 2164q39 -7 644 -252q61 -41 680 -412q177 -104 212 -136l8 -12v-40q0 -16 -468 -852q-92 -188 -124 -188q-533 -272 -540 -272h-20q-25 0 -120 92q-811 731 -840 760l-4 20v28q0 22 340 820q160 396 180 424q21 20 52 20zM140 900l808 -728h8l632 1216l-984 616
q-16 -20 -200 -464q-264 -629 -264 -640zM792 1544h8q236 -144 268 -172q12 -20 12 -32v-20q0 -20 -92 -204q-12 -36 -68 -36q16 -18 16 -56q0 -21 -156 -324q-17 -16 -40 -16q-20 0 -200 148q-56 42 -56 48q49 108 56 108q28 -28 176 -136h4q0 5 104 216q-71 51 -96 64
q0 13 56 120q15 -7 96 -64h4q0 12 52 112q-139 87 -196 128zM1708 1340q-15 -36 -584 -1124h4q336 172 336 176l492 892q-191 40 -248 56z" />
    <glyph glyph-name="four" unicode="4" horiz-adv-x="2336" 
d="M508 2156h40q75 -16 776 -232l824 -624q8 -26 8 -36v-12q0 -15 -120 -204q-478 -766 -496 -788q-17 -16 -508 -176q-155 -60 -248 -84h-28q-28 0 -76 72q-668 840 -676 860q-4 16 -4 28q6 33 148 376q120 283 300 728q34 87 60 92zM560 1988l-424 -1024l624 -784h4
q13 33 616 1120q-120 108 -820 688zM824 1940q81 -73 652 -548q0 -20 204 -28q14 -4 192 -20h4v4q-16 8 -628 468q-48 12 -424 124zM672 1516l88 -76l-160 -340l80 -72l164 336h4q82 -69 92 -84q-272 -536 -328 -652h-4q-80 73 -80 88q96 194 96 200q-156 150 -156 160
l200 440h4zM1500 1252l-592 -1076q528 180 552 192l520 836v4z" />
    <glyph glyph-name="five" unicode="5" horiz-adv-x="2340" 
d="M744 2224h40q10 0 380 -172q248 -107 260 -140l636 -648q100 -99 100 -112v-36q0 -24 -140 -164q-13 -21 -356 -396q-251 -280 -260 -280q-525 -252 -596 -276h-16q-40 0 -116 128q-86 114 -676 944v40q0 18 168 264l556 836zM776 2056l-636 -956q0 -4 664 -932h4
q0 8 596 692l236 280q-60 56 -768 820zM1044 1964v-4q6 -2 712 -760h4q104 -4 164 -4h20q-608 624 -644 652q-25 8 -256 116zM896 1512h12q26 0 128 -132q96 -100 96 -144v-8q0 -41 -56 -96l-168 196q-15 -15 -68 -92v-4q140 -165 140 -188v-20q0 -38 -76 -128
q-151 -209 -172 -224q-16 -4 -28 -4q-33 13 -164 192q-40 46 -40 76v24q1 26 48 80q138 -178 156 -196l136 188q-132 162 -132 176q-4 7 -4 20v24q0 23 160 244q17 16 32 16zM1756 1076l-708 -824q282 128 304 148q0 7 124 140q402 442 480 532h-8q-62 0 -192 4z" />
    <glyph glyph-name="six" unicode="6" horiz-adv-x="2348" 
d="M640 2176h24q770 -228 800 -248q622 -762 700 -864l4 -28q0 -38 -84 -108q-213 -221 -644 -656q-16 -32 -88 -56l-740 -216h-32q-40 0 -88 124q-7 0 -368 728q-68 125 -124 244v40q11 36 152 260q264 452 456 764q17 16 32 16zM656 1996q-59 -107 -520 -876
q0 -9 292 -588q180 -356 184 -356q12 20 316 372q368 424 412 480q-614 874 -684 968zM816 1996l644 -912q42 4 48 4q82 0 464 8q-568 708 -592 728zM756 1496h4q29 0 80 -96q13 -9 128 -188v-4q-31 -31 -64 -88h-4q-12 7 -68 100l-72 104l-56 -84q112 -169 112 -200v-12
q0 -39 -92 -148q-110 -168 -132 -168h-4q-36 0 -112 152q-64 85 -64 136q0 33 116 192q193 285 212 300q7 4 16 4zM632 1144q-18 -34 -112 -164q54 -87 56 -96h4q7 3 120 168l-64 92h-4zM1500 964q-54 0 -68 -28q-618 -718 -644 -752q30 12 548 164l612 624h-4
q-335 -8 -444 -8z" />
    <glyph glyph-name="seven" unicode="7" horiz-adv-x="2324" 
d="M532 2160h36q85 -23 704 -240l860 -580l12 -20v-40q0 -11 -192 -336l-396 -668q-74 -40 -664 -276h-44q-48 39 -524 552q-286 300 -320 344l-4 28q16 66 220 536q0 8 284 680zM584 1996l-444 -1064q10 -6 712 -756l8 -4l636 1176l-908 648h-4zM964 1888v-4
q17 -9 388 -276q236 -172 264 -184q70 -8 196 -28h4v4l-616 408l-232 80h-4zM680 1608h8q240 -187 248 -200q12 -29 12 -48q0 -25 -140 -300q-140 -296 -152 -308q-13 4 -88 80q244 515 244 520l-180 144q48 103 48 112zM1612 1292q-404 -752 -592 -1096v-4h4
q396 164 444 188l512 868l-368 48v-4z" />
    <glyph glyph-name="eight" unicode="8" horiz-adv-x="1816" 
d="M1516 1856q68 0 68 -88q0 -36 52 -1304q-88 -396 -100 -436q-18 -22 -32 -28l-1100 20q-72 0 -96 60q-13 9 -260 324q-48 53 -48 72v4q0 47 184 1308q26 36 56 36l1268 28zM300 1700q-88 -591 -164 -1148l128 -4q304 0 1244 -12l-48 1192zM1012 1464q40 -15 40 -64
q0 -22 -4 -44l4 -36q0 -156 -52 -156q40 -25 40 -52q0 -374 -20 -396q-25 -32 -60 -32h-276q-56 8 -56 56q26 388 40 388q24 24 40 24v4q-40 11 -40 44v28q0 17 4 44q-4 8 -4 12q16 156 36 156q0 24 308 24zM804 1340q-8 -94 -8 -120q60 4 88 4h32q4 88 4 116h-116z
M788 1092l-20 -264h128q12 222 12 264h-120zM196 428v-4q180 -228 224 -280q81 0 1008 -20q64 284 64 288q-868 12 -1276 12z" />
    <glyph glyph-name="nine" unicode="9" horiz-adv-x="2348" 
d="M1564 2176h8q56 0 80 -84q500 -980 516 -1024v-20q0 -19 -332 -568q-267 -451 -284 -472l-28 -8h-16q-23 0 -376 108l-432 136q-664 816 -700 868v40q0 28 168 184q258 270 596 604q632 192 800 236zM824 1148q670 -954 684 -968q421 713 524 876q-291 573 -472 940h-4z
M216 1200q42 4 48 4q92 0 444 8l664 772v4q-489 -144 -544 -164q-597 -608 -600 -608zM1576 1464q33 0 84 -104q92 -140 92 -172v-16q0 -36 -128 -204q-188 -288 -204 -288q-4 0 -12 -4q-33 0 -136 176q-8 4 -76 112l72 92q81 -129 136 -204h4q0 8 56 84q-116 161 -116 200
v8q0 37 80 136q112 163 140 180zM1464 1124q41 -54 60 -96q120 158 120 172q-56 81 -56 92q-6 0 -124 -168zM192 1076l572 -704q0 -22 100 -44q142 -48 480 -148v4l-636 904q-408 -8 -516 -12z" />
    <glyph glyph-name="colon" unicode=":" horiz-adv-x="557" 
 />
    <glyph glyph-name="semicolon" unicode=";" horiz-adv-x="557" 
 />
    <glyph glyph-name="semicolon" unicode="&#x37e;" horiz-adv-x="557" 
 />
    <glyph glyph-name="less" unicode="&#x3c;" 
 />
    <glyph glyph-name="equal" unicode="=" 
 />
    <glyph glyph-name="greater" unicode="&#x3e;" 
 />
    <glyph glyph-name="question" unicode="?" horiz-adv-x="748" 
 />
    <glyph glyph-name="at" unicode="@" horiz-adv-x="2019" 
 />
    <glyph glyph-name="A" unicode="A" horiz-adv-x="2300" 
d="M896 2120q8 0 680 -260q29 -18 68 -112q476 -940 476 -956v-32q0 -32 -76 -68q-826 -476 -836 -476q-701 -216 -712 -216h-32q-47 0 -80 140q-288 811 -384 1104v44q0 8 624 616q214 216 232 216h40zM136 1244q364 -1053 380 -1084q843 515 896 552q-528 1168 -556 1236
q-77 -69 -720 -704zM1004 1940v-8l532 -1176h4q420 65 420 72q-460 923 -464 924zM640 1444q43 0 72 -104q216 -504 236 -564v-4q-8 0 -96 -64h-8l-92 232h-4l-84 -64l92 -236q-93 -64 -100 -64v4q-240 623 -240 636v8q0 53 100 120q99 96 124 100zM532 1204
q77 -197 88 -208l80 68q-84 205 -84 212h-4q-78 -60 -80 -72zM956 280v-4h4q220 64 260 92q483 277 496 288q-196 -28 -220 -44q-62 -43 -504 -312q-26 -20 -36 -20z" />
    <glyph glyph-name="B" unicode="B" horiz-adv-x="2132" 
d="M1764 1964q44 -19 44 -68q144 -1090 144 -1124v-16q-22 -57 -360 -684q-32 -72 -64 -72h-12q-102 8 -1120 164q-31 0 -84 212q-300 959 -312 1028v12q0 39 96 80q591 325 652 348q974 120 1016 120zM356 1492v-4h4q578 36 868 60q8 13 224 192q76 68 84 68v4h-4
q-730 -88 -760 -96q-336 -185 -416 -224zM1320 1464l220 -1204h8l276 528q-16 145 -128 988q-350 -294 -376 -312zM148 1348l328 -1068l956 -144q0 26 -236 1284q-139 -12 -1048 -72zM808 1108q68 -22 68 -72l44 -200q-5 0 -28 -40q52 -19 52 -60l68 -300q-14 -31 -32 -36
q-253 20 -280 28q-156 588 -176 676h208q32 0 76 4zM668 976q24 -108 32 -108h4q18 0 88 -4v4l-24 108h-100zM728 740q49 -212 56 -212q82 -8 96 -8l-52 216q-66 4 -100 4z" />
    <glyph glyph-name="C" unicode="C" horiz-adv-x="2012" 
d="M1624 1976q36 0 56 -104l152 -752q-88 -1069 -96 -1092q-28 -28 -44 -28q-1093 84 -1112 92q-9 1 -420 412q-156 147 -156 164l-4 20q0 24 188 588q180 547 192 568l32 24zM480 1744l-328 -996h4q1102 -32 1204 -32l28 -4l144 1132q-1001 -92 -1052 -100zM1092 1628v-4
l-16 -96q-248 0 -248 -16l-88 -400h228l28 -4q-20 -95 -20 -112q-166 4 -248 4h-88q-40 8 -40 40q112 496 132 552q27 24 40 24zM1616 1520q-24 -211 -108 -856l128 -324h4q60 700 68 768l-88 412h-4zM228 620q406 -411 420 -412q136 -8 932 -76q-180 448 -180 456
q-1046 32 -1172 32z" />
    <glyph glyph-name="D" unicode="D" horiz-adv-x="2012" 
d="M1584 1940q51 0 80 -160q156 -547 168 -624v-4q0 -99 -88 -1124q-23 -28 -48 -28q-1011 76 -1088 92q-581 417 -604 440l-4 20v16q0 34 296 1088q31 160 64 160q0 8 944 96q83 12 280 28zM144 624h4l1212 -48l140 1232l-1060 -108zM708 1580h300q48 0 48 -40
q-96 -612 -120 -652q-27 -28 -56 -28q-49 0 -324 4v4zM1596 1536q-108 -961 -116 -1004q155 -264 160 -264l68 872q-108 385 -108 396h-4zM808 1460l-92 -460h112l88 460h-108zM272 496q17 -17 236 -172q152 -116 168 -116q818 -68 892 -76q-188 316 -196 320
q-51 0 -1100 44z" />
    <glyph glyph-name="E" unicode="E" horiz-adv-x="2336" 
d="M1412 2220h40q22 0 124 -184l580 -960v-52l-784 -976q-33 -48 -72 -48q-29 0 -188 84q-407 197 -420 216q-7 15 -480 600q-200 245 -208 264q-4 16 -4 32q0 33 152 156q637 577 680 608q7 0 504 228q62 32 76 32zM504 1204l800 -1036l712 888q-414 686 -600 1000h-4z
M248 1264h4q109 8 136 8l700 660l-212 -100zM1504 1556q212 -320 212 -328v-4l-72 -76q-93 129 -140 208q-3 0 -76 -76l148 -216l-76 -88q-21 20 -144 200l-12 12q-4 -11 -156 -176q154 -210 160 -212q-3 -11 -84 -100q-4 0 -252 328v4q346 374 492 524zM192 1136v-4
q509 -637 600 -744l288 -144v4q-86 106 -692 900h-4q-150 -12 -192 -12z" />
    <glyph glyph-name="F" unicode="F" horiz-adv-x="2340" 
d="M1320 2224h32q33 -3 116 -128l688 -928q4 -22 4 -32q0 -26 -72 -128q-631 -966 -656 -996q-20 -12 -40 -12q-30 0 -272 120q-280 128 -344 164l-776 768v44q0 20 96 120q604 688 644 728q537 268 580 280zM1332 2060l-824 -980q-4 -8 -4 -12q4 0 872 -896v-4h4
q82 118 640 972q-45 53 -664 892q-21 28 -24 28zM200 1140v-4h36q47 0 148 -4l700 832v4h-4q-266 -130 -276 -140q-11 -19 -220 -252zM1444 1576q213 -245 236 -276q-64 -85 -64 -92h-4l-160 180q-58 -84 -64 -84q1 -9 160 -184q-51 -79 -72 -100q-157 177 -164 180
q-202 -270 -212 -288h-4q-46 42 -88 96v4q420 552 436 564zM224 1012q582 -578 644 -632q6 0 224 -104v4l-708 728q-101 4 -160 4z" />
    <glyph glyph-name="G" unicode="G" horiz-adv-x="2016" 
d="M1704 1988q44 -25 44 -112q88 -975 88 -1004q-140 -745 -168 -848q-22 -24 -44 -24q-1212 103 -1212 116q-20 0 -120 308q-24 52 -292 812v36q58 74 572 624q1093 92 1132 92zM212 1316h4q82 0 1184 28q28 91 184 512q-890 -76 -956 -84zM1640 1636l-128 -364
q0 -22 112 -816h4q32 182 84 436q-52 532 -68 744h-4zM176 1192q-20 0 -20 -8q256 -720 344 -956q837 -80 1040 -96v4q-148 1062 -148 1084h-4q-1062 -28 -1212 -28zM676 948q74 0 352 -8q0 -13 20 -120h-4l-256 12q44 -192 100 -400q10 0 108 -4q0 -4 4 -4q-17 83 -24 92
q-60 2 -60 8l-20 100h4q7 -4 16 -4q168 0 168 -36q14 0 52 -224q0 -28 -40 -32q-304 11 -304 40q-15 0 -80 272q-72 237 -72 272q0 25 36 36z" />
    <glyph glyph-name="H" unicode="H" horiz-adv-x="2348" 
d="M1376 2208q44 0 104 -100q544 -732 680 -920q8 0 8 -20v-32q0 -14 -320 -560q-298 -519 -332 -564q-15 -12 -28 -12h-28q-23 0 -664 264q0 4 -784 732q-7 15 -12 40q0 39 116 164q389 485 604 740l628 264q16 4 28 4zM600 1016q387 -380 792 -784l68 -64h4q11 27 272 472
l292 508v4l-656 884q-694 -906 -772 -1016v-4zM192 1092h4q121 -8 288 -8l684 900v4l-380 -164zM1500 1512q80 -89 80 -100q-148 -235 -148 -240q0 -8 76 -88q135 223 148 236q10 -4 76 -88q0 -18 -360 -604q-5 0 -88 88v4l156 252v8l-76 84h-4q-6 -14 -156 -252v-4h-4
q-92 81 -92 104q4 0 364 564q21 35 28 36zM236 964v-4q9 0 504 -468q102 -93 140 -124l320 -128v4q-285 279 -716 708q-101 8 -244 12h-4z" />
    <glyph glyph-name="I" unicode="I" horiz-adv-x="2168" 
d="M1776 1952q52 -20 52 -84q160 -1125 160 -1156v-16q-82 -110 -504 -656q-20 -30 -40 -40h-24q-41 0 -1044 188q-29 0 -56 120q-296 1020 -320 1136v16q0 43 156 92q588 244 664 264q919 136 956 136zM1200 1512l252 -1300q5 1 408 528q-148 1030 -148 1048h-4
q-499 -267 -508 -276zM508 1556v-4h4q516 48 600 60q1 7 288 156v4h-4q-536 -76 -576 -88q-37 -20 -312 -128zM148 1392v-4q12 -61 308 -1084q96 -20 884 -164q-160 791 -264 1340q-894 -88 -928 -88zM812 1140l28 -132l-28 -4h-76q112 -487 112 -500h8q34 0 100 -4l24 -128
h-4q-304 19 -304 28q-24 104 -24 116h16q26 0 80 -4q-8 27 -112 488h-100q0 11 -28 128q43 0 308 12z" />
    <glyph glyph-name="J" unicode="J" horiz-adv-x="2324" 
d="M864 2168h24q14 0 648 -272q30 -29 120 -188q148 -240 488 -808v-48q-21 -35 -208 -152q-677 -472 -696 -472l-652 -228h-32q-45 0 -96 152q-424 972 -460 1068v28q0 23 128 152l680 728q30 40 56 40zM140 1224l456 -1064l912 668v4l-644 1164q-5 0 -724 -772zM1024 1972
l608 -1092q329 44 348 44q-507 839 -528 868zM700 1520h4q313 -638 316 -652v-12q0 -56 -72 -100q-153 -128 -172 -128h-16q-35 0 -84 136q-56 116 -60 136q21 14 88 72h8q56 -139 80 -168q84 65 84 76l-212 444h-4q-64 -68 -168 -156q-44 101 -44 116q59 52 252 236z
M972 272q237 84 264 100q23 23 584 400v4h-4q-212 -25 -212 -40q-614 -446 -632 -464z" />
    <glyph glyph-name="K" unicode="K" horiz-adv-x="2316" 
d="M464 2144h16q26 0 888 -208l764 -708l4 -8v-44q0 -14 -120 -184l-508 -752q0 -18 -168 -52q-535 -144 -744 -188h-4q-39 0 -88 104q-13 17 -252 436q-252 427 -252 444v36q4 28 284 740q132 350 148 368q17 16 32 16zM664 1972l608 -684q590 -24 632 -24
q-582 542 -612 560q-79 16 -628 148zM500 1960l-368 -952q461 -805 468 -808h4q0 5 560 1020zM580 1516q18 -25 64 -80l-84 -196h4l140 120h4q5 0 72 -84q-156 -122 -164 -140q-96 -425 -108 -468h-4l-56 84q0 20 92 428v4h-4l-140 -344h-4q-56 71 -56 88l240 588h4z
M540 1196v-8h4v8h-4zM1280 1164l-548 -1000h4q585 148 688 180q24 40 532 788v4z" />
    <glyph glyph-name="L" unicode="L" horiz-adv-x="2020" 
d="M144 1976q1090 -88 1112 -96q549 -517 580 -552l4 -28v-4q-48 -169 -360 -1108q-18 -72 -56 -72q-64 -12 -1196 -116q-56 0 -72 148q-28 104 -156 692q4 84 96 1100q24 36 48 36zM260 1840l192 -440l1156 -32q-34 38 -420 396zM196 1656q-68 -783 -72 -796
q52 -210 96 -432h4q116 874 116 904q-120 273 -140 324h-4zM464 1276l-152 -1144q641 64 1048 100l328 1008zM868 972h16q40 0 120 -4v-4l-108 -532h4q189 4 228 4q-4 -6 -24 -96q-62 -4 -356 -12q120 631 120 644z" />
    <glyph glyph-name="M" unicode="M" horiz-adv-x="2016" 
d="M1548 1884q28 -13 64 -112q224 -565 224 -572q0 -85 -80 -1164q-24 -36 -48 -36h-4q-52 0 -1056 88q-27 16 -624 288l-24 32v28q0 18 276 1288q19 36 88 36q1036 116 1184 124zM140 488q1133 -64 1172 -64q0 -4 4 -4l136 1332l-1064 -116zM1556 1552l-116 -1172
q49 -41 204 -184q20 317 68 972q-144 353 -152 384h-4zM1132 1512v-4l-104 -776h-136l56 376v4h-4q-168 -374 -176 -376h-124q-40 273 -48 356h-8v-4q0 -14 -60 -348h-120q124 677 136 728q29 0 112 8q80 -506 80 -528h8q0 7 196 424q60 120 60 132q105 8 132 8zM404 348v-4
q299 -136 308 -136l800 -68l-168 156l-936 52h-4z" />
    <glyph glyph-name="N" unicode="N" horiz-adv-x="2324" 
d="M612 2184q25 0 432 -164q230 -84 264 -112l816 -580q20 -21 20 -36v-40q-595 -945 -620 -972q-591 -280 -608 -280h-36q-28 19 -476 492q-70 78 -396 420q-8 26 -8 36q0 28 116 268l436 936q20 32 60 32zM632 2020q0 -9 -492 -1060l752 -792q72 128 680 1152
q-9 13 -200 152l-736 548h-4zM1044 1880q635 -480 648 -480q16 -4 132 -20q-338 246 -628 444q-9 0 -152 56zM828 1572l88 -76l-72 -384q8 3 120 228q40 76 44 76q35 -23 96 -80v-4q-319 -599 -344 -656h-8q-81 80 -88 80l72 372v4h-4l-148 -292h-4q-84 79 -84 84l328 648h4
zM1692 1272q-21 -40 -628 -1064q379 175 380 180l532 840z" />
    <glyph glyph-name="O" unicode="O" horiz-adv-x="2340" 
d="M784 2176h36q648 -240 700 -268l640 -944v-52q-39 -49 -224 -184q-13 -17 -620 -492q-700 -236 -712 -236h-28q-42 0 -92 136q-484 1030 -484 1048v20q0 21 88 124q658 826 676 844zM140 1184l472 -1016l856 732q-555 911 -676 1100q-17 -13 -652 -816zM956 1988v-4
q520 -844 628 -1028l404 32l-552 816zM852 1440q34 0 92 -112q96 -145 96 -180v-8q0 -40 -56 -88q-352 -368 -360 -368h-16q-35 0 -100 144q-72 108 -72 152q0 41 104 136q0 7 124 140q163 184 180 184h8zM844 1268q-54 -62 -284 -308l-4 -8q41 -77 60 -100l292 312
q-56 100 -64 104zM884 228q250 84 384 132l624 496q-295 -24 -320 -32z" />
    <glyph glyph-name="P" unicode="P" horiz-adv-x="2144" 
d="M1592 2020h12q45 0 92 -160q252 -636 268 -700v-16q-8 -91 -176 -1116q-19 -17 -36 -28q-120 8 -1064 128q-668 544 -684 564l-4 36q0 18 200 512l248 608q0 19 116 32q871 124 1028 140zM156 780h4l1080 -44v4l264 1144h-4l-952 -136zM1604 1736l-248 -1052l336 -456
q128 781 144 916q-228 581 -228 592h-4zM1060 1684q32 -3 32 -32q-95 -368 -116 -368q0 -32 -236 -32q-71 -232 -80 -232h-116q48 146 224 636q257 28 292 28zM780 1364h4l108 8l60 204h-4q-104 -7 -104 -16zM252 652v-4q8 0 188 -152q269 -221 308 -248q372 -48 840 -104v4
q-292 404 -336 460q-8 4 -12 4q-52 0 -984 40h-4z" />
    <glyph glyph-name="Q" unicode="Q" horiz-adv-x="2340" 
d="M1296 2200h24q31 0 108 -108q185 -213 724 -860q8 -15 8 -32v-4q0 -29 -176 -356q-269 -529 -424 -820q-20 -20 -52 -20q-32 4 -332 124q-324 128 -344 140l-820 664q-12 23 -12 40q0 37 76 128q40 60 572 804q0 23 148 80q467 212 500 220zM1312 2028l-724 -1092
l904 -772q38 82 528 1024q-674 810 -708 840zM180 1020q185 -20 292 -28q9 21 656 992h-4q-351 -153 -384 -176zM1448 1568q40 0 112 -96q120 -117 120 -148l4 -20q0 -30 -264 -444q-52 -96 -68 -96h-28q-19 0 -72 52q-59 -100 -64 -100l-100 84q61 96 64 108
q-72 46 -72 108q0 27 188 304q122 198 160 244zM1472 1400q0 -7 -244 -388v-4q1 -4 88 -84q4 12 240 388zM272 884v-4q8 0 368 -296q23 -15 260 -208q23 -12 268 -108v4l-380 324q-293 251 -320 268l-192 20h-4z" />
    <glyph glyph-name="R" unicode="R" horiz-adv-x="2348" 
d="M1464 2208h40q28 -4 136 -212q156 -260 528 -912v-36q0 -20 -220 -316q-33 -53 -456 -644q-50 -88 -96 -88q-29 0 -448 176q-252 94 -252 116l-696 844v52q0 7 676 652q124 120 140 120zM1464 2040q-138 -146 -828 -852l-12 -16l772 -1000q611 867 636 892
q-537 929 -568 976zM228 1232h4q38 0 276 8l720 740l-376 -148q-2 -6 -624 -600zM1388 1548q33 0 124 -160q112 -164 112 -188v-20q0 -34 -52 -92l188 -84v-8q-59 -84 -72 -92q-5 0 -188 80l120 -176q-72 -98 -72 -104h-8l-408 584q24 32 204 228q25 32 52 32zM1296 1288
q125 -187 128 -196q76 79 76 100l-124 180zM192 1104l600 -724q397 -164 404 -164q-676 888 -692 900q-40 0 -312 -12z" />
    <glyph glyph-name="S" unicode="S" horiz-adv-x="2000" 
d="M1700 1920q48 0 48 -136q72 -953 72 -1040l-200 -712q-21 -32 -48 -32q-1163 104 -1236 120q-26 0 -52 140q-224 865 -284 1128v20q0 34 104 92q374 250 508 336q1016 84 1088 84zM660 1716l-368 -248h4l1084 44l176 276q-838 -72 -896 -72zM1484 1436
q100 -962 104 -1032h4q0 11 104 376l-64 880q-26 -34 -148 -224zM144 1336q264 -1055 280 -1104l1068 -100q-96 919 -128 1256h-4zM596 1080q294 -8 320 -8q12 -101 20 -128h-4q-81 0 -240 8q20 -106 20 -116q228 0 228 -32q25 0 56 -276q5 0 20 -128q-15 -36 -40 -36
q-300 20 -300 24q-20 97 -20 112h4q26 -4 224 -16q-36 213 -36 224q-232 0 -232 40q-16 20 -60 288q0 27 40 44z" />
    <glyph glyph-name="T" unicode="T" horiz-adv-x="2052" 
d="M680 1808h36q12 0 1120 -340q36 -22 36 -52q0 -78 -136 -1384q-24 -32 -48 -32q-1172 64 -1220 72q-21 12 -448 200q-20 21 -20 36v8q0 37 116 964q32 232 40 260q11 17 248 132q260 136 276 136zM752 1660q-4 -20 -176 -1472l1048 -60q20 239 120 1232l-992 304v-4z
M128 364q7 0 324 -140q168 1388 168 1412q-352 -176 -352 -180q-104 -823 -140 -1092zM1128 1340l320 -96q-16 -118 -16 -136q-89 28 -104 28q-88 -646 -92 -656l-112 16q92 649 92 676h-4l-104 28z" />
    <glyph glyph-name="U" unicode="U" horiz-adv-x="2348" 
d="M1380 2216h48q33 -21 108 -144q489 -721 628 -936q4 -15 4 -32q0 -23 -120 -196l-592 -888l-28 -20h-28q-26 0 -636 272q-759 795 -764 812v48q77 89 580 624q178 196 200 204zM1392 2052q-100 -120 -828 -944q77 -93 836 -940q9 17 628 944zM208 1168h236q55 59 716 812
q-288 -124 -336 -148zM1288 1548q80 -92 348 -436q80 -86 80 -128q0 -38 -112 -168q-56 -92 -88 -92h-12q-29 0 -84 80q-14 10 -404 472q0 6 96 96q15 -10 264 -316l140 -164q64 81 68 92q-20 28 -384 476q0 5 88 88zM212 1044q490 -526 632 -668q8 0 316 -136v4l-716 800
h-232z" />
    <glyph glyph-name="V" unicode="V" horiz-adv-x="2344" 
d="M1436 2212h36q37 0 116 -156q61 -97 288 -488q276 -459 288 -496v-44q-764 -1008 -776 -1016q-15 -12 -44 -12q-19 0 -400 172q-191 85 -240 112q-8 16 -604 744q-100 116 -100 144v4q0 44 92 112q699 651 728 668zM1440 2048q-5 -9 -864 -844q-8 0 -8 -16l780 -1016
q20 20 676 884v8q-547 930 -584 984zM240 1248q220 10 220 20l700 688q-264 -108 -296 -128q-622 -574 -624 -580zM1340 1632h4q284 -692 292 -700q-3 -11 -84 -100q-444 484 -484 532l96 92l232 -256q-142 331 -144 348zM192 1120l600 -736l348 -156l-692 908z" />
    <glyph glyph-name="W" unicode="W" horiz-adv-x="2092" 
d="M1720 2000h16q44 -23 44 -84l132 -1052q-232 -788 -256 -844q-21 -20 -36 -20h-8q-78 0 -1172 136q-27 18 -84 192q-204 529 -356 944v24q0 33 152 156q483 440 496 440q1039 108 1072 108zM240 1356h4l1080 36q64 116 268 468v4l-900 -96q-5 -9 -452 -408v-4zM1432 1316
l184 -984h4q0 16 164 544q-64 490 -108 864q-15 -15 -244 -420v-4zM156 1228q108 -300 368 -976l1000 -120l-212 1136q-1134 -40 -1156 -40zM1028 1016h32q32 -608 36 -636q-132 3 -132 20l-124 272h-4q24 -230 24 -280q-116 3 -116 8q-228 459 -296 604v4h120l140 -296h4v4
q-28 275 -32 292l48 4h80q136 -297 136 -304h4v8l-20 296q66 4 100 4z" />
    <glyph glyph-name="X" unicode="X" horiz-adv-x="2352" 
d="M664 2188h40q12 0 740 -244q35 -31 640 -756q88 -94 88 -116v-40q-3 -15 -740 -756q-11 -27 -52 -40q-720 -236 -736 -236h-16q-39 0 -80 96q-535 973 -548 1012v24q0 21 244 400q370 606 404 648q6 0 16 8zM692 2012q-460 -744 -556 -892l516 -944h4q18 26 604 692
q125 141 156 180v4q-718 958 -724 960zM868 2000v-4q661 -877 664 -888q48 0 444 8q-523 627 -600 712zM572 1548h4q44 -173 100 -356q258 -190 264 -200q-36 -48 -84 -96q-77 65 -128 100q52 -173 52 -188v-4q-65 -79 -80 -88q-92 350 -108 392q-10 0 -224 176q56 81 68 88
l108 -80v4l-44 164zM1532 984l-508 -580q-152 -172 -176 -204h4q307 100 492 164l612 628q-382 -8 -424 -8z" />
    <glyph glyph-name="Y" unicode="Y" horiz-adv-x="2012" 
d="M592 1772h24q99 -16 1192 -296q24 -27 24 -36q-68 -957 -112 -1408q-23 -32 -44 -32q-98 0 -1244 28q-345 178 -416 220q-16 20 -16 28q117 1228 124 1228q26 26 400 232q48 36 68 36zM664 1628q-140 -1446 -140 -1476q35 -4 40 -4q90 0 1040 -24q16 175 100 1248
l-1040 260v-4zM532 1596q-5 -9 -232 -132q-60 -36 -60 -44l-112 -1088l272 -140q104 1099 136 1404h-4zM1056 1228h4q116 -19 116 -32l40 -184h4q0 8 64 172q89 -20 112 -20v-4q-140 -361 -140 -384l-28 -364q-66 4 -100 4h-20q4 17 32 396q-76 365 -84 416z" />
    <glyph glyph-name="Z" unicode="Z" horiz-adv-x="2312" 
d="M668 2204h32q13 0 580 -276q74 -58 836 -624q16 -17 16 -32v-40l-636 -936q-508 -296 -524 -296h-44q-10 0 -760 772q-164 162 -164 180q-4 7 -4 20q0 33 116 236q447 855 520 980q17 16 32 16zM704 2044l-552 -1044q-8 0 -8 -20q796 -816 800 -816q727 1111 736 1132v4z
M1448 1640v-4l8 -4v4zM1464 1628v-4l8 -4v4zM1480 1616v-4l8 -4v4zM1492 1608v-4l12 -8v4zM1508 1596v-4q291 -224 300 -224h4v4q-12 4 -304 224zM844 1556q264 -216 308 -256v-4q-12 -4 -344 -284q-121 -100 -140 -112v-4q0 -4 152 -152v-4q-56 -89 -60 -104h-4l-268 272v4
l436 380q6 0 12 12l-160 136q55 104 68 116zM1800 1240l-644 -988h4q227 127 248 144l552 812v4z" />
    <glyph glyph-name="bracketleft" unicode="[" horiz-adv-x="758" 
 />
    <glyph glyph-name="backslash" unicode="\" horiz-adv-x="569" 
 />
    <glyph glyph-name="bracketright" unicode="]" horiz-adv-x="758" 
 />
    <glyph glyph-name="asciicircum" unicode="^" 
 />
    <glyph glyph-name="underscore" unicode="_" horiz-adv-x="1024" 
 />
    <glyph glyph-name="grave" unicode="`" horiz-adv-x="1024" 
 />
    <glyph glyph-name="a" unicode="a" horiz-adv-x="2300" 
d="M896 2120q8 0 680 -260q29 -18 68 -112q476 -940 476 -956v-32q0 -32 -76 -68q-826 -476 -836 -476q-701 -216 -712 -216h-32q-47 0 -80 140q-288 811 -384 1104v44q0 8 624 616q214 216 232 216h40zM136 1244q364 -1053 380 -1084q843 515 896 552q-528 1168 -556 1236
q-77 -69 -720 -704zM1004 1940v-8l532 -1176h4q420 65 420 72q-460 923 -464 924zM640 1444q43 0 72 -104q216 -504 236 -564v-4q-8 0 -96 -64h-8l-92 232h-4l-84 -64l92 -236q-93 -64 -100 -64v4q-240 623 -240 636v8q0 53 100 120q99 96 124 100zM532 1204
q77 -197 88 -208l80 68q-84 205 -84 212h-4q-78 -60 -80 -72zM956 280v-4h4q220 64 260 92q483 277 496 288q-196 -28 -220 -44q-62 -43 -504 -312q-26 -20 -36 -20z" />
    <glyph glyph-name="b" unicode="b" horiz-adv-x="2132" 
d="M1764 1964q44 -19 44 -68q144 -1090 144 -1124v-16q-22 -57 -360 -684q-32 -72 -64 -72h-12q-102 8 -1120 164q-31 0 -84 212q-300 959 -312 1028v12q0 39 96 80q591 325 652 348q974 120 1016 120zM356 1492v-4h4q578 36 868 60q8 13 224 192q76 68 84 68v4h-4
q-730 -88 -760 -96q-336 -185 -416 -224zM1320 1464l220 -1204h8l276 528q-16 145 -128 988q-350 -294 -376 -312zM148 1348l328 -1068l956 -144q0 26 -236 1284q-139 -12 -1048 -72zM808 1108q68 -22 68 -72l44 -200q-5 0 -28 -40q52 -19 52 -60l68 -300q-14 -31 -32 -36
q-253 20 -280 28q-156 588 -176 676h208q32 0 76 4zM668 976q24 -108 32 -108h4q18 0 88 -4v4l-24 108h-100zM728 740q49 -212 56 -212q82 -8 96 -8l-52 216q-66 4 -100 4z" />
    <glyph glyph-name="c" unicode="c" horiz-adv-x="2012" 
d="M1624 1976q36 0 56 -104l152 -752q-88 -1069 -96 -1092q-28 -28 -44 -28q-1093 84 -1112 92q-9 1 -420 412q-156 147 -156 164l-4 20q0 24 188 588q180 547 192 568l32 24zM480 1744l-328 -996h4q1102 -32 1204 -32l28 -4l144 1132q-1001 -92 -1052 -100zM1092 1628v-4
l-16 -96q-248 0 -248 -16l-88 -400h228l28 -4q-20 -95 -20 -112q-166 4 -248 4h-88q-40 8 -40 40q112 496 132 552q27 24 40 24zM1616 1520q-24 -211 -108 -856l128 -324h4q60 700 68 768l-88 412h-4zM228 620q406 -411 420 -412q136 -8 932 -76q-180 448 -180 456
q-1046 32 -1172 32z" />
    <glyph glyph-name="d" unicode="d" horiz-adv-x="2012" 
d="M1584 1940q51 0 80 -160q156 -547 168 -624v-4q0 -99 -88 -1124q-23 -28 -48 -28q-1011 76 -1088 92q-581 417 -604 440l-4 20v16q0 34 296 1088q31 160 64 160q0 8 944 96q83 12 280 28zM144 624h4l1212 -48l140 1232l-1060 -108zM708 1580h300q48 0 48 -40
q-96 -612 -120 -652q-27 -28 -56 -28q-49 0 -324 4v4zM1596 1536q-108 -961 -116 -1004q155 -264 160 -264l68 872q-108 385 -108 396h-4zM808 1460l-92 -460h112l88 460h-108zM272 496q17 -17 236 -172q152 -116 168 -116q818 -68 892 -76q-188 316 -196 320
q-51 0 -1100 44z" />
    <glyph glyph-name="e" unicode="e" horiz-adv-x="2336" 
d="M1412 2220h40q22 0 124 -184l580 -960v-52l-784 -976q-33 -48 -72 -48q-29 0 -188 84q-407 197 -420 216q-7 15 -480 600q-200 245 -208 264q-4 16 -4 32q0 33 152 156q637 577 680 608q7 0 504 228q62 32 76 32zM504 1204l800 -1036l712 888q-414 686 -600 1000h-4z
M248 1264h4q109 8 136 8l700 660l-212 -100zM1504 1556q212 -320 212 -328v-4l-72 -76q-93 129 -140 208q-3 0 -76 -76l148 -216l-76 -88q-21 20 -144 200l-12 12q-4 -11 -156 -176q154 -210 160 -212q-3 -11 -84 -100q-4 0 -252 328v4q346 374 492 524zM192 1136v-4
q509 -637 600 -744l288 -144v4q-86 106 -692 900h-4q-150 -12 -192 -12z" />
    <glyph glyph-name="f" unicode="f" horiz-adv-x="2340" 
d="M1320 2224h32q33 -3 116 -128l688 -928q4 -22 4 -32q0 -26 -72 -128q-631 -966 -656 -996q-20 -12 -40 -12q-30 0 -272 120q-280 128 -344 164l-776 768v44q0 20 96 120q604 688 644 728q537 268 580 280zM1332 2060l-824 -980q-4 -8 -4 -12q4 0 872 -896v-4h4
q82 118 640 972q-45 53 -664 892q-21 28 -24 28zM200 1140v-4h36q47 0 148 -4l700 832v4h-4q-266 -130 -276 -140q-11 -19 -220 -252zM1444 1576q213 -245 236 -276q-64 -85 -64 -92h-4l-160 180q-58 -84 -64 -84q1 -9 160 -184q-51 -79 -72 -100q-157 177 -164 180
q-202 -270 -212 -288h-4q-46 42 -88 96v4q420 552 436 564zM224 1012q582 -578 644 -632q6 0 224 -104v4l-708 728q-101 4 -160 4z" />
    <glyph glyph-name="g" unicode="g" horiz-adv-x="2016" 
d="M1704 1988q44 -25 44 -112q88 -975 88 -1004q-140 -745 -168 -848q-22 -24 -44 -24q-1212 103 -1212 116q-20 0 -120 308q-24 52 -292 812v36q58 74 572 624q1093 92 1132 92zM212 1316h4q82 0 1184 28q28 91 184 512q-890 -76 -956 -84zM1640 1636l-128 -364
q0 -22 112 -816h4q32 182 84 436q-52 532 -68 744h-4zM176 1192q-20 0 -20 -8q256 -720 344 -956q837 -80 1040 -96v4q-148 1062 -148 1084h-4q-1062 -28 -1212 -28zM676 948q74 0 352 -8q0 -13 20 -120h-4l-256 12q44 -192 100 -400q10 0 108 -4q0 -4 4 -4q-17 83 -24 92
q-60 2 -60 8l-20 100h4q7 -4 16 -4q168 0 168 -36q14 0 52 -224q0 -28 -40 -32q-304 11 -304 40q-15 0 -80 272q-72 237 -72 272q0 25 36 36z" />
    <glyph glyph-name="h" unicode="h" horiz-adv-x="2348" 
d="M1376 2208q44 0 104 -100q544 -732 680 -920q8 0 8 -20v-32q0 -14 -320 -560q-298 -519 -332 -564q-15 -12 -28 -12h-28q-23 0 -664 264q0 4 -784 732q-7 15 -12 40q0 39 116 164q389 485 604 740l628 264q16 4 28 4zM600 1016q387 -380 792 -784l68 -64h4q11 27 272 472
l292 508v4l-656 884q-694 -906 -772 -1016v-4zM192 1092h4q121 -8 288 -8l684 900v4l-380 -164zM1500 1512q80 -89 80 -100q-148 -235 -148 -240q0 -8 76 -88q135 223 148 236q10 -4 76 -88q0 -18 -360 -604q-5 0 -88 88v4l156 252v8l-76 84h-4q-6 -14 -156 -252v-4h-4
q-92 81 -92 104q4 0 364 564q21 35 28 36zM236 964v-4q9 0 504 -468q102 -93 140 -124l320 -128v4q-285 279 -716 708q-101 8 -244 12h-4z" />
    <glyph glyph-name="i" unicode="i" horiz-adv-x="2168" 
d="M1776 1952q52 -20 52 -84q160 -1125 160 -1156v-16q-82 -110 -504 -656q-20 -30 -40 -40h-24q-41 0 -1044 188q-29 0 -56 120q-296 1020 -320 1136v16q0 43 156 92q588 244 664 264q919 136 956 136zM1200 1512l252 -1300q5 1 408 528q-148 1030 -148 1048h-4
q-499 -267 -508 -276zM508 1556v-4h4q516 48 600 60q1 7 288 156v4h-4q-536 -76 -576 -88q-37 -20 -312 -128zM148 1392v-4q12 -61 308 -1084q96 -20 884 -164q-160 791 -264 1340q-894 -88 -928 -88zM812 1140l28 -132l-28 -4h-76q112 -487 112 -500h8q34 0 100 -4l24 -128
h-4q-304 19 -304 28q-24 104 -24 116h16q26 0 80 -4q-8 27 -112 488h-100q0 11 -28 128q43 0 308 12z" />
    <glyph glyph-name="j" unicode="j" horiz-adv-x="2324" 
d="M864 2168h24q14 0 648 -272q30 -29 120 -188q148 -240 488 -808v-48q-21 -35 -208 -152q-677 -472 -696 -472l-652 -228h-32q-45 0 -96 152q-424 972 -460 1068v28q0 23 128 152l680 728q30 40 56 40zM140 1224l456 -1064l912 668v4l-644 1164q-5 0 -724 -772zM1024 1972
l608 -1092q329 44 348 44q-507 839 -528 868zM700 1520h4q313 -638 316 -652v-12q0 -56 -72 -100q-153 -128 -172 -128h-16q-35 0 -84 136q-56 116 -60 136q21 14 88 72h8q56 -139 80 -168q84 65 84 76l-212 444h-4q-64 -68 -168 -156q-44 101 -44 116q59 52 252 236z
M972 272q237 84 264 100q23 23 584 400v4h-4q-212 -25 -212 -40q-614 -446 -632 -464z" />
    <glyph glyph-name="k" unicode="k" horiz-adv-x="2316" 
d="M464 2144h16q26 0 888 -208l764 -708l4 -8v-44q0 -14 -120 -184l-508 -752q0 -18 -168 -52q-535 -144 -744 -188h-4q-39 0 -88 104q-13 17 -252 436q-252 427 -252 444v36q4 28 284 740q132 350 148 368q17 16 32 16zM664 1972l608 -684q590 -24 632 -24
q-582 542 -612 560q-79 16 -628 148zM500 1960l-368 -952q461 -805 468 -808h4q0 5 560 1020zM580 1516q18 -25 64 -80l-84 -196h4l140 120h4q5 0 72 -84q-156 -122 -164 -140q-96 -425 -108 -468h-4l-56 84q0 20 92 428v4h-4l-140 -344h-4q-56 71 -56 88l240 588h4z
M540 1196v-8h4v8h-4zM1280 1164l-548 -1000h4q585 148 688 180q24 40 532 788v4z" />
    <glyph glyph-name="l" unicode="l" horiz-adv-x="2020" 
d="M144 1976q1090 -88 1112 -96q549 -517 580 -552l4 -28v-4q-48 -169 -360 -1108q-18 -72 -56 -72q-64 -12 -1196 -116q-56 0 -72 148q-28 104 -156 692q4 84 96 1100q24 36 48 36zM260 1840l192 -440l1156 -32q-34 38 -420 396zM196 1656q-68 -783 -72 -796
q52 -210 96 -432h4q116 874 116 904q-120 273 -140 324h-4zM464 1276l-152 -1144q641 64 1048 100l328 1008zM868 972h16q40 0 120 -4v-4l-108 -532h4q189 4 228 4q-4 -6 -24 -96q-62 -4 -356 -12q120 631 120 644z" />
    <glyph glyph-name="m" unicode="m" horiz-adv-x="2016" 
d="M1548 1884q28 -13 64 -112q224 -565 224 -572q0 -85 -80 -1164q-24 -36 -48 -36h-4q-52 0 -1056 88q-27 16 -624 288l-24 32v28q0 18 276 1288q19 36 88 36q1036 116 1184 124zM140 488q1133 -64 1172 -64q0 -4 4 -4l136 1332l-1064 -116zM1556 1552l-116 -1172
q49 -41 204 -184q20 317 68 972q-144 353 -152 384h-4zM1132 1512v-4l-104 -776h-136l56 376v4h-4q-168 -374 -176 -376h-124q-40 273 -48 356h-8v-4q0 -14 -60 -348h-120q124 677 136 728q29 0 112 8q80 -506 80 -528h8q0 7 196 424q60 120 60 132q105 8 132 8zM404 348v-4
q299 -136 308 -136l800 -68l-168 156l-936 52h-4z" />
    <glyph glyph-name="n" unicode="n" horiz-adv-x="2324" 
d="M612 2184q25 0 432 -164q230 -84 264 -112l816 -580q20 -21 20 -36v-40q-595 -945 -620 -972q-591 -280 -608 -280h-36q-28 19 -476 492q-70 78 -396 420q-8 26 -8 36q0 28 116 268l436 936q20 32 60 32zM632 2020q0 -9 -492 -1060l752 -792q72 128 680 1152
q-9 13 -200 152l-736 548h-4zM1044 1880q635 -480 648 -480q16 -4 132 -20q-338 246 -628 444q-9 0 -152 56zM828 1572l88 -76l-72 -384q8 3 120 228q40 76 44 76q35 -23 96 -80v-4q-319 -599 -344 -656h-8q-81 80 -88 80l72 372v4h-4l-148 -292h-4q-84 79 -84 84l328 648h4
zM1692 1272q-21 -40 -628 -1064q379 175 380 180l532 840z" />
    <glyph glyph-name="o" unicode="o" horiz-adv-x="2340" 
d="M784 2176h36q648 -240 700 -268l640 -944v-52q-39 -49 -224 -184q-13 -17 -620 -492q-700 -236 -712 -236h-28q-42 0 -92 136q-484 1030 -484 1048v20q0 21 88 124q658 826 676 844zM140 1184l472 -1016l856 732q-555 911 -676 1100q-17 -13 -652 -816zM956 1988v-4
q520 -844 628 -1028l404 32l-552 816zM852 1440q34 0 92 -112q96 -145 96 -180v-8q0 -40 -56 -88q-352 -368 -360 -368h-16q-35 0 -100 144q-72 108 -72 152q0 41 104 136q0 7 124 140q163 184 180 184h8zM844 1268q-54 -62 -284 -308l-4 -8q41 -77 60 -100l292 312
q-56 100 -64 104zM884 228q250 84 384 132l624 496q-295 -24 -320 -32z" />
    <glyph glyph-name="p" unicode="p" horiz-adv-x="2144" 
d="M1592 2020h12q45 0 92 -160q252 -636 268 -700v-16q-8 -91 -176 -1116q-19 -17 -36 -28q-120 8 -1064 128q-668 544 -684 564l-4 36q0 18 200 512l248 608q0 19 116 32q871 124 1028 140zM156 780h4l1080 -44v4l264 1144h-4l-952 -136zM1604 1736l-248 -1052l336 -456
q128 781 144 916q-228 581 -228 592h-4zM1060 1684q32 -3 32 -32q-95 -368 -116 -368q0 -32 -236 -32q-71 -232 -80 -232h-116q48 146 224 636q257 28 292 28zM780 1364h4l108 8l60 204h-4q-104 -7 -104 -16zM252 652v-4q8 0 188 -152q269 -221 308 -248q372 -48 840 -104v4
q-292 404 -336 460q-8 4 -12 4q-52 0 -984 40h-4z" />
    <glyph glyph-name="q" unicode="q" horiz-adv-x="2340" 
d="M1296 2200h24q31 0 108 -108q185 -213 724 -860q8 -15 8 -32v-4q0 -29 -176 -356q-269 -529 -424 -820q-20 -20 -52 -20q-32 4 -332 124q-324 128 -344 140l-820 664q-12 23 -12 40q0 37 76 128q40 60 572 804q0 23 148 80q467 212 500 220zM1312 2028l-724 -1092
l904 -772q38 82 528 1024q-674 810 -708 840zM180 1020q185 -20 292 -28q9 21 656 992h-4q-351 -153 -384 -176zM1448 1568q40 0 112 -96q120 -117 120 -148l4 -20q0 -30 -264 -444q-52 -96 -68 -96h-28q-19 0 -72 52q-59 -100 -64 -100l-100 84q61 96 64 108
q-72 46 -72 108q0 27 188 304q122 198 160 244zM1472 1400q0 -7 -244 -388v-4q1 -4 88 -84q4 12 240 388zM272 884v-4q8 0 368 -296q23 -15 260 -208q23 -12 268 -108v4l-380 324q-293 251 -320 268l-192 20h-4z" />
    <glyph glyph-name="r" unicode="r" horiz-adv-x="2348" 
d="M1464 2208h40q28 -4 136 -212q156 -260 528 -912v-36q0 -20 -220 -316q-33 -53 -456 -644q-50 -88 -96 -88q-29 0 -448 176q-252 94 -252 116l-696 844v52q0 7 676 652q124 120 140 120zM1464 2040q-138 -146 -828 -852l-12 -16l772 -1000q611 867 636 892
q-537 929 -568 976zM228 1232h4q38 0 276 8l720 740l-376 -148q-2 -6 -624 -600zM1388 1548q33 0 124 -160q112 -164 112 -188v-20q0 -34 -52 -92l188 -84v-8q-59 -84 -72 -92q-5 0 -188 80l120 -176q-72 -98 -72 -104h-8l-408 584q24 32 204 228q25 32 52 32zM1296 1288
q125 -187 128 -196q76 79 76 100l-124 180zM192 1104l600 -724q397 -164 404 -164q-676 888 -692 900q-40 0 -312 -12z" />
    <glyph glyph-name="s" unicode="s" horiz-adv-x="2000" 
d="M1700 1920q48 0 48 -136q72 -953 72 -1040l-200 -712q-21 -32 -48 -32q-1163 104 -1236 120q-26 0 -52 140q-224 865 -284 1128v20q0 34 104 92q374 250 508 336q1016 84 1088 84zM660 1716l-368 -248h4l1084 44l176 276q-838 -72 -896 -72zM1484 1436
q100 -962 104 -1032h4q0 11 104 376l-64 880q-26 -34 -148 -224zM144 1336q264 -1055 280 -1104l1068 -100q-96 919 -128 1256h-4zM596 1080q294 -8 320 -8q12 -101 20 -128h-4q-81 0 -240 8q20 -106 20 -116q228 0 228 -32q25 0 56 -276q5 0 20 -128q-15 -36 -40 -36
q-300 20 -300 24q-20 97 -20 112h4q26 -4 224 -16q-36 213 -36 224q-232 0 -232 40q-16 20 -60 288q0 27 40 44z" />
    <glyph glyph-name="t" unicode="t" horiz-adv-x="2052" 
d="M680 1808h36q12 0 1120 -340q36 -22 36 -52q0 -78 -136 -1384q-24 -32 -48 -32q-1172 64 -1220 72q-21 12 -448 200q-20 21 -20 36v8q0 37 116 964q32 232 40 260q11 17 248 132q260 136 276 136zM752 1660q-4 -20 -176 -1472l1048 -60q20 239 120 1232l-992 304v-4z
M128 364q7 0 324 -140q168 1388 168 1412q-352 -176 -352 -180q-104 -823 -140 -1092zM1128 1340l320 -96q-16 -118 -16 -136q-89 28 -104 28q-88 -646 -92 -656l-112 16q92 649 92 676h-4l-104 28z" />
    <glyph glyph-name="u" unicode="u" horiz-adv-x="2348" 
d="M1380 2216h48q33 -21 108 -144q489 -721 628 -936q4 -15 4 -32q0 -23 -120 -196l-592 -888l-28 -20h-28q-26 0 -636 272q-759 795 -764 812v48q77 89 580 624q178 196 200 204zM1392 2052q-100 -120 -828 -944q77 -93 836 -940q9 17 628 944zM208 1168h236q55 59 716 812
q-288 -124 -336 -148zM1288 1548q80 -92 348 -436q80 -86 80 -128q0 -38 -112 -168q-56 -92 -88 -92h-12q-29 0 -84 80q-14 10 -404 472q0 6 96 96q15 -10 264 -316l140 -164q64 81 68 92q-20 28 -384 476q0 5 88 88zM212 1044q490 -526 632 -668q8 0 316 -136v4l-716 800
h-232z" />
    <glyph glyph-name="v" unicode="v" horiz-adv-x="2344" 
d="M1436 2212h36q37 0 116 -156q61 -97 288 -488q276 -459 288 -496v-44q-764 -1008 -776 -1016q-15 -12 -44 -12q-19 0 -400 172q-191 85 -240 112q-8 16 -604 744q-100 116 -100 144v4q0 44 92 112q699 651 728 668zM1440 2048q-5 -9 -864 -844q-8 0 -8 -16l780 -1016
q20 20 676 884v8q-547 930 -584 984zM240 1248q220 10 220 20l700 688q-264 -108 -296 -128q-622 -574 -624 -580zM1340 1632h4q284 -692 292 -700q-3 -11 -84 -100q-444 484 -484 532l96 92l232 -256q-142 331 -144 348zM192 1120l600 -736l348 -156l-692 908z" />
    <glyph glyph-name="w" unicode="w" horiz-adv-x="2092" 
d="M1720 2000h16q44 -23 44 -84l132 -1052q-232 -788 -256 -844q-21 -20 -36 -20h-8q-78 0 -1172 136q-27 18 -84 192q-204 529 -356 944v24q0 33 152 156q483 440 496 440q1039 108 1072 108zM240 1356h4l1080 36q64 116 268 468v4l-900 -96q-5 -9 -452 -408v-4zM1432 1316
l184 -984h4q0 16 164 544q-64 490 -108 864q-15 -15 -244 -420v-4zM156 1228q108 -300 368 -976l1000 -120l-212 1136q-1134 -40 -1156 -40zM1028 1016h32q32 -608 36 -636q-132 3 -132 20l-124 272h-4q24 -230 24 -280q-116 3 -116 8q-228 459 -296 604v4h120l140 -296h4v4
q-28 275 -32 292l48 4h80q136 -297 136 -304h4v8l-20 296q66 4 100 4z" />
    <glyph glyph-name="x" unicode="x" horiz-adv-x="2352" 
d="M664 2188h40q12 0 740 -244q35 -31 640 -756q88 -94 88 -116v-40q-3 -15 -740 -756q-11 -27 -52 -40q-720 -236 -736 -236h-16q-39 0 -80 96q-535 973 -548 1012v24q0 21 244 400q370 606 404 648q6 0 16 8zM692 2012q-460 -744 -556 -892l516 -944h4q18 26 604 692
q125 141 156 180v4q-718 958 -724 960zM868 2000v-4q661 -877 664 -888q48 0 444 8q-523 627 -600 712zM572 1548h4q44 -173 100 -356q258 -190 264 -200q-36 -48 -84 -96q-77 65 -128 100q52 -173 52 -188v-4q-65 -79 -80 -88q-92 350 -108 392q-10 0 -224 176q56 81 68 88
l108 -80v4l-44 164zM1532 984l-508 -580q-152 -172 -176 -204h4q307 100 492 164l612 628q-382 -8 -424 -8z" />
    <glyph glyph-name="y" unicode="y" horiz-adv-x="2012" 
d="M592 1772h24q99 -16 1192 -296q24 -27 24 -36q-68 -957 -112 -1408q-23 -32 -44 -32q-98 0 -1244 28q-345 178 -416 220q-16 20 -16 28q117 1228 124 1228q26 26 400 232q48 36 68 36zM664 1628q-140 -1446 -140 -1476q35 -4 40 -4q90 0 1040 -24q16 175 100 1248
l-1040 260v-4zM532 1596q-5 -9 -232 -132q-60 -36 -60 -44l-112 -1088l272 -140q104 1099 136 1404h-4zM1056 1228h4q116 -19 116 -32l40 -184h4q0 8 64 172q89 -20 112 -20v-4q-140 -361 -140 -384l-28 -364q-66 4 -100 4h-20q4 17 32 396q-76 365 -84 416z" />
    <glyph glyph-name="z" unicode="z" horiz-adv-x="2312" 
d="M668 2204h32q13 0 580 -276q74 -58 836 -624q16 -17 16 -32v-40l-636 -936q-508 -296 -524 -296h-44q-10 0 -760 772q-164 162 -164 180q-4 7 -4 20q0 33 116 236q447 855 520 980q17 16 32 16zM704 2044l-552 -1044q-8 0 -8 -20q796 -816 800 -816q727 1111 736 1132v4z
M1448 1640v-4l8 -4v4zM1464 1628v-4l8 -4v4zM1480 1616v-4l8 -4v4zM1492 1608v-4l12 -8v4zM1508 1596v-4q291 -224 300 -224h4v4q-12 4 -304 224zM844 1556q264 -216 308 -256v-4q-12 -4 -344 -284q-121 -100 -140 -112v-4q0 -4 152 -152v-4q-56 -89 -60 -104h-4l-268 272v4
l436 380q6 0 12 12l-160 136q55 104 68 116zM1800 1240l-644 -988h4q227 127 248 144l552 812v4z" />
    <glyph glyph-name="braceleft" unicode="{" 
 />
    <glyph glyph-name="bar" unicode="|" 
 />
    <glyph glyph-name="braceright" unicode="}" 
 />
    <glyph glyph-name="asciitilde" unicode="~" 
 />
    <glyph glyph-name="exclamdown" unicode="&#xa1;" horiz-adv-x="672" 
 />
    <glyph glyph-name="cent" unicode="&#xa2;" horiz-adv-x="1139" 
 />
    <glyph glyph-name="sterling" unicode="&#xa3;" 
 />
    <glyph glyph-name="currency" unicode="&#xa4;" 
 />
    <glyph glyph-name="yen" unicode="&#xa5;" horiz-adv-x="1262" 
 />
    <glyph glyph-name="brokenbar" unicode="&#xa6;" 
 />
    <glyph glyph-name="section" unicode="&#xa7;" 
 />
    <glyph glyph-name="dieresis" unicode="&#xa8;" horiz-adv-x="1024" 
 />
    <glyph glyph-name="copyright" unicode="&#xa9;" horiz-adv-x="1674" 
 />
    <glyph glyph-name="ordfeminine" unicode="&#xaa;" horiz-adv-x="648" 
 />
    <glyph glyph-name="guillemotleft" unicode="&#xab;" horiz-adv-x="944" 
 />
    <glyph glyph-name="logicalnot" unicode="&#xac;" 
 />
    <glyph glyph-name="registered" unicode="&#xae;" horiz-adv-x="1674" 
 />
    <glyph glyph-name="macron" unicode="&#xaf;" horiz-adv-x="670" 
 />
    <glyph glyph-name="degree" unicode="&#xb0;" horiz-adv-x="674" 
 />
    <glyph glyph-name="plusminus" unicode="&#xb1;" 
 />
    <glyph glyph-name="uni00B2" unicode="&#xb2;" 
 />
    <glyph glyph-name="uni00B3" unicode="&#xb3;" 
 />
    <glyph glyph-name="acute" unicode="&#xb4;" horiz-adv-x="1024" 
 />
    <glyph glyph-name="mu" unicode="&#xb5;" horiz-adv-x="1180" 
 />
    <glyph glyph-name="paragraph" unicode="&#xb6;" horiz-adv-x="1024" 
 />
    <glyph glyph-name="periodcentered" unicode="&#xb7;" horiz-adv-x="508" 
 />
    <glyph glyph-name="periodcentered" unicode="&#x2219;" horiz-adv-x="508" 
 />
    <glyph glyph-name="cedilla" unicode="&#xb8;" horiz-adv-x="1024" 
 />
    <glyph glyph-name="uni00B9" unicode="&#xb9;" 
 />
    <glyph glyph-name="ordmasculine" unicode="&#xba;" horiz-adv-x="718" 
 />
    <glyph glyph-name="guillemotright" unicode="&#xbb;" horiz-adv-x="944" 
 />
    <glyph glyph-name="onequarter" unicode="&#xbc;" horiz-adv-x="1708" 
 />
    <glyph glyph-name="onehalf" unicode="&#xbd;" horiz-adv-x="1964" 
 />
    <glyph glyph-name="threequarters" unicode="&#xbe;" horiz-adv-x="1708" 
 />
    <glyph glyph-name="questiondown" unicode="&#xbf;" horiz-adv-x="748" 
 />
    <glyph glyph-name="Agrave" unicode="&#xc0;" horiz-adv-x="1540" 
 />
    <glyph glyph-name="Aacute" unicode="&#xc1;" horiz-adv-x="1540" 
 />
    <glyph glyph-name="Acircumflex" unicode="&#xc2;" horiz-adv-x="1540" 
 />
    <glyph glyph-name="Atilde" unicode="&#xc3;" horiz-adv-x="1540" 
 />
    <glyph glyph-name="Adieresis" unicode="&#xc4;" horiz-adv-x="1540" 
 />
    <glyph glyph-name="Aring" unicode="&#xc5;" horiz-adv-x="1540" 
 />
    <glyph glyph-name="AE" unicode="&#xc6;" horiz-adv-x="2118" 
 />
    <glyph glyph-name="Ccedilla" unicode="&#xc7;" horiz-adv-x="1399" 
 />
    <glyph glyph-name="Egrave" unicode="&#xc8;" horiz-adv-x="1151" 
 />
    <glyph glyph-name="Eacute" unicode="&#xc9;" horiz-adv-x="1151" 
 />
    <glyph glyph-name="Ecircumflex" unicode="&#xca;" horiz-adv-x="1151" 
 />
    <glyph glyph-name="Edieresis" unicode="&#xcb;" horiz-adv-x="1151" 
 />
    <glyph glyph-name="Igrave" unicode="&#xcc;" horiz-adv-x="657" 
 />
    <glyph glyph-name="Iacute" unicode="&#xcd;" horiz-adv-x="657" 
 />
    <glyph glyph-name="Icircumflex" unicode="&#xce;" horiz-adv-x="657" 
 />
    <glyph glyph-name="Idieresis" unicode="&#xcf;" horiz-adv-x="657" 
 />
    <glyph glyph-name="Eth" unicode="&#xd0;" horiz-adv-x="1518" 
 />
    <glyph glyph-name="Ntilde" unicode="&#xd1;" horiz-adv-x="1554" 
 />
    <glyph glyph-name="Ograve" unicode="&#xd2;" horiz-adv-x="1614" 
 />
    <glyph glyph-name="Oacute" unicode="&#xd3;" horiz-adv-x="1614" 
 />
    <glyph glyph-name="Ocircumflex" unicode="&#xd4;" horiz-adv-x="1614" 
 />
    <glyph glyph-name="Otilde" unicode="&#xd5;" horiz-adv-x="1614" 
 />
    <glyph glyph-name="Odieresis" unicode="&#xd6;" horiz-adv-x="1614" 
 />
    <glyph glyph-name="multiply" unicode="&#xd7;" 
 />
    <glyph glyph-name="Oslash" unicode="&#xd8;" horiz-adv-x="1614" 
 />
    <glyph glyph-name="Ugrave" unicode="&#xd9;" horiz-adv-x="1501" 
 />
    <glyph glyph-name="Uacute" unicode="&#xda;" horiz-adv-x="1501" 
 />
    <glyph glyph-name="Ucircumflex" unicode="&#xdb;" horiz-adv-x="1501" 
 />
    <glyph glyph-name="Udieresis" unicode="&#xdc;" horiz-adv-x="1501" 
 />
    <glyph glyph-name="Yacute" unicode="&#xdd;" horiz-adv-x="1233" 
 />
    <glyph glyph-name="Thorn" unicode="&#xde;" horiz-adv-x="1120" 
 />
    <glyph glyph-name="germandbls" unicode="&#xdf;" horiz-adv-x="1251" 
 />
    <glyph glyph-name="agrave" unicode="&#xe0;" horiz-adv-x="922" 
 />
    <glyph glyph-name="aacute" unicode="&#xe1;" horiz-adv-x="922" 
 />
    <glyph glyph-name="acircumflex" unicode="&#xe2;" horiz-adv-x="922" 
 />
    <glyph glyph-name="atilde" unicode="&#xe3;" horiz-adv-x="922" 
 />
    <glyph glyph-name="adieresis" unicode="&#xe4;" horiz-adv-x="922" 
 />
    <glyph glyph-name="aring" unicode="&#xe5;" horiz-adv-x="922" 
 />
    <glyph glyph-name="ae" unicode="&#xe6;" horiz-adv-x="1454" 
 />
    <glyph glyph-name="ccedilla" unicode="&#xe7;" horiz-adv-x="905" 
 />
    <glyph glyph-name="egrave" unicode="&#xe8;" horiz-adv-x="909" 
 />
    <glyph glyph-name="eacute" unicode="&#xe9;" horiz-adv-x="909" 
 />
    <glyph glyph-name="ecircumflex" unicode="&#xea;" horiz-adv-x="909" 
 />
    <glyph glyph-name="edieresis" unicode="&#xeb;" horiz-adv-x="909" 
 />
    <glyph glyph-name="igrave" unicode="&#xec;" horiz-adv-x="514" 
 />
    <glyph glyph-name="iacute" unicode="&#xed;" horiz-adv-x="514" 
 />
    <glyph glyph-name="icircumflex" unicode="&#xee;" horiz-adv-x="514" 
 />
    <glyph glyph-name="idieresis" unicode="&#xef;" horiz-adv-x="514" 
 />
    <glyph glyph-name="eth" unicode="&#xf0;" horiz-adv-x="1139" 
 />
    <glyph glyph-name="ntilde" unicode="&#xf1;" horiz-adv-x="1108" 
 />
    <glyph glyph-name="ograve" unicode="&#xf2;" horiz-adv-x="1010" 
 />
    <glyph glyph-name="oacute" unicode="&#xf3;" horiz-adv-x="1010" 
 />
    <glyph glyph-name="ocircumflex" unicode="&#xf4;" horiz-adv-x="1010" 
 />
    <glyph glyph-name="otilde" unicode="&#xf5;" horiz-adv-x="1010" 
 />
    <glyph glyph-name="odieresis" unicode="&#xf6;" horiz-adv-x="1010" 
 />
    <glyph glyph-name="divide" unicode="&#xf7;" 
 />
    <glyph glyph-name="oslash" unicode="&#xf8;" horiz-adv-x="1010" 
 />
    <glyph glyph-name="ugrave" unicode="&#xf9;" horiz-adv-x="1059" 
 />
    <glyph glyph-name="uacute" unicode="&#xfa;" horiz-adv-x="1059" 
 />
    <glyph glyph-name="ucircumflex" unicode="&#xfb;" horiz-adv-x="1059" 
 />
    <glyph glyph-name="udieresis" unicode="&#xfc;" horiz-adv-x="1059" 
 />
    <glyph glyph-name="yacute" unicode="&#xfd;" horiz-adv-x="868" 
 />
    <glyph glyph-name="thorn" unicode="&#xfe;" horiz-adv-x="1010" 
 />
    <glyph glyph-name="ydieresis" unicode="&#xff;" horiz-adv-x="868" 
 />
    <glyph glyph-name="dotlessi" unicode="&#x131;" horiz-adv-x="514" 
 />
    <glyph glyph-name="circumflex" unicode="&#x2c6;" horiz-adv-x="1024" 
 />
    <glyph glyph-name="caron" unicode="&#x2c7;" horiz-adv-x="1024" 
 />
    <glyph glyph-name="uni02C9" unicode="&#x2c9;" horiz-adv-x="1024" 
 />
    <glyph glyph-name="breve" unicode="&#x2d8;" horiz-adv-x="1024" 
 />
    <glyph glyph-name="dotaccent" unicode="&#x2d9;" horiz-adv-x="1024" 
 />
    <glyph glyph-name="ring" unicode="&#x2da;" horiz-adv-x="1024" 
 />
    <glyph glyph-name="ogonek" unicode="&#x2db;" horiz-adv-x="1024" 
 />
    <glyph glyph-name="tilde" unicode="&#x2dc;" horiz-adv-x="1024" 
 />
    <glyph glyph-name="hungarumlaut" unicode="&#x2dd;" horiz-adv-x="1024" 
 />
    <glyph glyph-name="endash" unicode="&#x2013;" horiz-adv-x="1108" 
 />
    <glyph glyph-name="emdash" unicode="&#x2014;" horiz-adv-x="2048" 
 />
    <glyph glyph-name="quoteleft" unicode="&#x2018;" horiz-adv-x="557" 
 />
    <glyph glyph-name="quoteright" unicode="&#x2019;" horiz-adv-x="557" 
 />
    <glyph glyph-name="quotesinglbase" unicode="&#x201a;" horiz-adv-x="557" 
 />
    <glyph glyph-name="quotedblleft" unicode="&#x201c;" horiz-adv-x="910" 
 />
    <glyph glyph-name="quotedblright" unicode="&#x201d;" horiz-adv-x="910" 
 />
    <glyph glyph-name="quotedblbase" unicode="&#x201e;" horiz-adv-x="910" 
 />
    <glyph glyph-name="dagger" unicode="&#x2020;" 
 />
    <glyph glyph-name="daggerdbl" unicode="&#x2021;" 
 />
    <glyph glyph-name="bullet" unicode="&#x2022;" horiz-adv-x="1024" 
 />
    <glyph glyph-name="ellipsis" unicode="&#x2026;" horiz-adv-x="2048" 
 />
    <glyph glyph-name="guilsinglleft" unicode="&#x2039;" horiz-adv-x="631" 
 />
    <glyph glyph-name="guilsinglright" unicode="&#x203a;" horiz-adv-x="631" 
 />
    <glyph glyph-name="fraction" unicode="&#x2044;" horiz-adv-x="342" 
 />
    <glyph glyph-name="fraction" unicode="&#x2215;" horiz-adv-x="342" 
 />
    <glyph glyph-name="franc" unicode="&#x20a3;" 
 />
    <glyph glyph-name="lira" unicode="&#x20a4;" 
 />
    <glyph glyph-name="peseta" unicode="&#x20a7;" horiz-adv-x="2028" 
 />
    <glyph glyph-name="Euro" unicode="&#x20ac;" 
 />
    <glyph glyph-name="afii61352" unicode="&#x2116;" horiz-adv-x="2271" 
 />
    <glyph glyph-name="trademark" unicode="&#x2122;" horiz-adv-x="1497" 
 />
    <glyph glyph-name="partialdiff" unicode="&#x2202;" 
 />
    <glyph glyph-name="Delta" unicode="&#x2206;" horiz-adv-x="1081" 
 />
    <glyph glyph-name="product" unicode="&#x220f;" horiz-adv-x="1515" 
 />
    <glyph glyph-name="summation" unicode="&#x2211;" horiz-adv-x="1206" 
 />
    <glyph glyph-name="minus" unicode="&#x2212;" 
 />
    <glyph glyph-name="radical" unicode="&#x221a;" 
 />
    <glyph glyph-name="infinity" unicode="&#x221e;" 
 />
    <glyph glyph-name="integral" unicode="&#x222b;" horiz-adv-x="665" 
 />
    <glyph glyph-name="approxequal" unicode="&#x2248;" 
 />
    <glyph glyph-name="lessequal" unicode="&#x2264;" 
 />
    <glyph glyph-name="greaterequal" unicode="&#x2265;" 
 />
    <glyph glyph-name="uniF001" unicode="&#xf001;" horiz-adv-x="1073" 
 />
    <glyph glyph-name="uniF001" unicode="&#xfb01;" horiz-adv-x="1073" 
 />
    <glyph glyph-name="uniF002" unicode="&#xf002;" horiz-adv-x="1081" 
 />
    <glyph glyph-name="uniF002" unicode="&#xfb02;" horiz-adv-x="1081" 
 />
  </font>
</defs>
</svg>
